# xmcd
#
# Track frame offsets: 
#        150
#        34831
#        50525
#        68268
#        82267
#        97974
#        115636
#        130109
#        146534
#        163078
#        200990
#        218622
#        232910
#        249134
#        264776
#        282071
#        310927
#        326227
#
# Disc length: 4601 seconds
#
# Revision: 0
# Processed by: cddbd v1.5.2PL0 Copyright (c) Steve Scherf et al.
# Submitted via: ExactAudioCopy v1.0b3
#
DISCID=f511f712
DTITLE=Various Artist - Trance The Vocal Session Vol. 14 - CD 1
DYEAR=1900
DGENRE=
TTITLE0=Kirsty Hawkshaw Meets Tenisha - Outsiders (Jose Amnesia Remix)
TTITLE1=DJ Klubbingman Feat. Beatrix Delgado - Never Stop This Feeling
TTITLE1=(Club Radio Edit)
TTITLE2=ATB - Feel Alive (Sunloverz Edit)
TTITLE3=DJ Tatana Feat. Sarah Vieth - Silence (Radio Edit)
TTITLE4=Dyce - Tomorrow Can Wait (Cascada Radio Mix)
TTITLE5=Kyau Vs. Albert - Always A Fool (Album Radio Edit)
TTITLE6=Above and Beyond - Good For Me (Radio Version)
TTITLE7=4 Clubbers Feat. Silvy - Time (The Hitmen Remix Edit)
TTITLE8=Apollo Vs. The MacKenzie - Dance 2007 (Cascada Edit)
TTITLE9=Bissen Feat. Victoria Jane - Melting (Alex M.O.R.P.H B2B Woody
TTITLE9=Van Eyden Remix)
TTITLE10=Pavex Feat. Danny Marx Young - Solid Skies (Radio Edit)
TTITLE11=DT8 Project - Hold Me Till The End (Radio Edit)
TTITLE12=Alex M.O.R.P.H. and Woody Van Eyden Feat. Kate Peters - Heavenl
TTITLE12=y (Radio Edit)
TTITLE13=DJ Matto - Angels Fly (DJ Dean Remix Radio Edit)
TTITLE14=Andrew Spencer and The Vamprockerz - Zombie (Ray Knox Rmx Edit)
TTITLE15=Air One Feat. Julia - Visions Of Paradise
TTITLE16=C.R.E.A.M. Feat. Dana - Why? (Single Mix)
TTITLE17=Sunny Inc. Feat. Yael Peles - Loving U
EXTD=
EXTT0=
EXTT1=
EXTT2=
EXTT3=
EXTT4=
EXTT5=
EXTT6=
EXTT7=
EXTT8=
EXTT9=
EXTT10=
EXTT11=
EXTT12=
EXTT13=
EXTT14=
EXTT15=
EXTT16=
EXTT17=
PLAYORDER=
